<?xml version="1.0" encoding="UTF-8" standalone="no"?>
<!-- Created with Inkscape (http://www.inkscape.org/) -->

<svg
   xmlns:dc="http://purl.org/dc/elements/1.1/"
   xmlns:cc="http://creativecommons.org/ns#"
   xmlns:rdf="http://www.w3.org/1999/02/22-rdf-syntax-ns#"
   xmlns:svg="http://www.w3.org/2000/svg"
   xmlns="http://www.w3.org/2000/svg"
   xmlns:sodipodi="http://sodipodi.sourceforge.net/DTD/sodipodi-0.dtd"
   xmlns:inkscape="http://www.inkscape.org/namespaces/inkscape"
   width="64"
   height="64"
   viewBox="0 0 16.933333 16.933333"
   version="1.1"
   id="svg8"
   inkscape:version="0.92.2 5c3e80d, 2017-08-06"
   sodipodi:docname="swim.svg"
   inkscape:export-filename="/Users/thp/swim.png"
   inkscape:export-xdpi="96.000008"
   inkscape:export-ydpi="96.000008">
  <defs
     id="defs2" />
  <sodipodi:namedview
     id="base"
     pagecolor="#ffffff"
     bordercolor="#666666"
     borderopacity="1.0"
     inkscape:pageopacity="0.0"
     inkscape:pageshadow="2"
     inkscape:zoom="4"
     inkscape:cx="-5.7968749"
     inkscape:cy="61.538429"
     inkscape:document-units="mm"
     inkscape:current-layer="layer1"
     showgrid="false"
     units="px"
     inkscape:window-width="1227"
     inkscape:window-height="755"
     inkscape:window-x="0"
     inkscape:window-y="1"
     inkscape:window-maximized="1" />
  <metadata
     id="metadata5">
    <rdf:RDF>
      <cc:Work
         rdf:about="">
        <dc:format>image/svg+xml</dc:format>
        <dc:type
           rdf:resource="http://purl.org/dc/dcmitype/StillImage" />
        <dc:title></dc:title>
      </cc:Work>
    </rdf:RDF>
  </metadata>
  <g
     inkscape:label="Layer 1"
     inkscape:groupmode="layer"
     id="layer1"
     transform="translate(0,-280.06667)">
    <circle
       style="fill:#ffffff;fill-opacity:0.49803922;stroke:none;stroke-width:0.24804682"
       id="path4504"
       cx="-8.4666662"
       cy="-288.53336"
       r="7.9375"
       transform="scale(-1)" />
    <text
       xml:space="preserve"
       style="font-style:normal;font-weight:normal;font-size:3.15364838px;line-height:125%;font-family:sans-serif;letter-spacing:0px;word-spacing:0px;fill:#ffffff;fill-opacity:0.50196078;stroke:none;stroke-width:0.07884121px;stroke-linecap:butt;stroke-linejoin:miter;stroke-opacity:1"
       x="3.8655429"
       y="294.07355"
       id="text5171"><tspan
         sodipodi:role="line"
         id="tspan5169"
         x="3.8655429"
         y="294.07355"
         style="font-style:normal;font-variant:normal;font-weight:normal;font-stretch:normal;font-family:Silom;-inkscape-font-specification:Silom;fill:#ffffff;fill-opacity:0.50196078;stroke-width:0.07884121px">swim</tspan></text>
    <path
       style="fill:#ffffff;fill-opacity:0.50196078;stroke:none;stroke-width:0.99999994"
       d="M 24.384766 6.1210938 C 24.795139 6.2518654 24.971828 6.7939245 25.197266 7.1171875 C 25.695109 7.9208284 26.376071 8.60714 26.822266 9.4492188 C 27.408051 10.297949 27.860917 11.234851 28.324219 12.154297 C 28.864706 13.064029 29.319339 14.038866 29.582031 15.066406 C 29.607354 15.702312 29.585311 16.353064 29.384766 16.962891 C 29.14915 17.528686 28.901683 18.065052 28.453125 18.5 C 27.891941 19.10412 27.31049 19.689603 26.736328 20.28125 C 26.430753 20.645974 26.055257 21.080388 26.074219 21.585938 C 26.095762 22.067789 26.187271 22.54157 26.308594 23.007812 C 26.544361 23.965885 26.815225 24.917075 27.113281 25.857422 C 27.379889 26.926726 27.908914 27.899992 28.445312 28.857422 C 29.058783 29.951444 29.759477 30.989379 30.507812 31.996094 C 30.631068 32.17026 30.761627 32.338899 30.886719 32.511719 C 30.681742 32.806695 30.48148 33.104383 30.269531 33.394531 C 29.468505 34.51879 28.618156 35.607659 27.8125 36.728516 C 27.029217 37.793964 26.278394 38.883051 25.488281 39.943359 C 25.062753 40.55179 24.671561 41.18963 24.386719 41.876953 L 27.728516 40.275391 C 27.763318 40.225879 27.801757 40.179489 27.832031 40.126953 C 27.989933 39.852635 28.081828 39.549848 28.246094 39.277344 C 28.300666 39.186786 28.725807 38.577673 28.767578 38.517578 C 29.519858 37.453414 30.270827 36.38715 31.039062 35.333984 C 31.357473 34.897156 31.677126 34.461077 32 34.027344 C 32.322874 34.461077 32.642527 34.897156 32.960938 35.333984 C 33.729176 36.38715 34.48014 37.453414 35.232422 38.517578 C 35.274186 38.577673 35.699334 39.186786 35.753906 39.277344 C 35.918165 39.549848 36.010083 39.852635 36.167969 40.126953 C 36.198205 40.179489 36.236713 40.225879 36.271484 40.275391 L 39.613281 41.876953 C 39.328424 41.18963 38.937251 40.55179 38.511719 39.943359 C 37.721609 38.883051 36.970784 37.793964 36.1875 36.728516 C 35.381845 35.607659 34.531498 34.51879 33.730469 33.394531 C 33.51852 33.104383 33.318258 32.806695 33.113281 32.511719 C 33.238373 32.338899 33.368932 32.17026 33.492188 31.996094 C 34.240521 30.989379 34.941217 29.951444 35.554688 28.857422 C 36.091085 27.899992 36.620107 26.926726 36.886719 25.857422 C 37.184776 24.917075 37.455639 23.965885 37.691406 23.007812 C 37.812729 22.54157 37.904238 22.067789 37.925781 21.585938 C 37.944743 21.080388 37.569247 20.645974 37.263672 20.28125 C 36.689508 19.689603 36.108058 19.10412 35.546875 18.5 C 35.098317 18.065052 34.850854 17.528686 34.615234 16.962891 C 34.414678 16.353064 34.392722 15.702312 34.417969 15.066406 C 34.680663 14.038866 35.135297 13.064029 35.675781 12.154297 C 36.139085 11.234851 36.591947 10.297949 37.177734 9.4492188 C 37.62393 8.60714 38.304891 7.9208284 38.802734 7.1171875 C 39.028172 6.7939245 39.204861 6.2518654 39.615234 6.1210938 L 36.169922 7.484375 C 35.907404 7.8239656 35.702785 8.204581 35.486328 8.5742188 C 34.959774 9.3474345 34.374809 10.079941 33.896484 10.886719 C 33.352365 11.761793 32.897762 12.687434 32.427734 13.603516 C 32.280742 13.871942 32.136813 14.144309 32 14.421875 C 31.863188 14.144309 31.719258 13.871942 31.572266 13.603516 C 31.102236 12.687434 30.647635 11.761793 30.103516 10.886719 C 29.62519 10.079941 29.040228 9.3474345 28.513672 8.5742188 C 28.297218 8.204581 28.092597 7.8239656 27.830078 7.484375 L 24.384766 6.1210938 z M 32 19.824219 C 32.134713 20.023194 32.279998 20.21439 32.458984 20.384766 C 33.035773 20.95623 33.582698 21.558478 34.144531 22.144531 C 34.392232 22.475656 34.667437 22.80632 34.623047 23.244141 C 34.592675 23.690919 34.535829 24.135125 34.435547 24.572266 C 34.216399 25.519188 33.959529 26.45761 33.667969 27.384766 C 33.333423 28.409244 32.845751 29.370728 32.310547 30.304688 C 32.212378 30.474192 32.101726 30.635461 32 30.802734 C 31.898274 30.635461 31.787622 30.474192 31.689453 30.304688 C 31.154249 29.370728 30.666576 28.409244 30.332031 27.384766 C 30.040478 26.45761 29.783601 25.519188 29.564453 24.572266 C 29.464182 24.135125 29.407341 23.690919 29.376953 23.244141 C 29.332581 22.80632 29.607785 22.475656 29.855469 22.144531 C 30.417303 21.558478 30.964226 20.95623 31.541016 20.384766 C 31.720002 20.21439 31.865287 20.023194 32 19.824219 z "
       transform="matrix(0.26458333,0,0,0.26458333,0,280.06667)"
       id="path5212" />
  </g>
</svg>
